<svg width="39" height="41" viewBox="0 0 39 41" fill="none" xmlns="http://www.w3.org/2000/svg">
<path d="M9.23584 34.625C8.57959 34.625 8.02522 34.3981 7.57272 33.9444C7.11897 33.4919 6.89209 32.9375 6.89209 32.2812C6.89209 31.625 7.11897 31.0706 7.57272 30.6181C8.02522 30.1644 8.57959 29.9375 9.23584 29.9375C9.89209 29.9375 10.4471 30.1644 10.9008 30.6181C11.3533 31.0706 11.5796 31.625 11.5796 32.2812C11.5796 32.9375 11.3533 33.4919 10.9008 33.9444C10.4471 34.3981 9.89209 34.625 9.23584 34.625ZM14.8608 40.25C14.2046 40.25 13.6502 40.0231 13.1977 39.5694C12.744 39.1169 12.5171 38.5625 12.5171 37.9062C12.5171 37.25 12.744 36.6956 13.1977 36.2431C13.6502 35.7894 14.2046 35.5625 14.8608 35.5625C15.5171 35.5625 16.0715 35.7894 16.524 36.2431C16.9777 36.6956 17.2046 37.25 17.2046 37.9062C17.2046 38.5625 16.9777 39.1169 16.524 39.5694C16.0715 40.0231 15.5171 40.25 14.8608 40.25ZM20.4858 34.625C19.8296 34.625 19.2752 34.3981 18.8227 33.9444C18.369 33.4919 18.1421 32.9375 18.1421 32.2812C18.1421 31.625 18.369 31.0706 18.8227 30.6181C19.2752 30.1644 19.8296 29.9375 20.4858 29.9375C21.1421 29.9375 21.6965 30.1644 22.149 30.6181C22.6027 31.0706 22.8296 31.625 22.8296 32.2812C22.8296 32.9375 22.6027 33.4919 22.149 33.9444C21.6965 34.3981 21.1421 34.625 20.4858 34.625ZM31.7358 34.625C31.0796 34.625 30.5252 34.3981 30.0727 33.9444C29.619 33.4919 29.3921 32.9375 29.3921 32.2812C29.3921 31.625 29.619 31.0706 30.0727 30.6181C30.5252 30.1644 31.0796 29.9375 31.7358 29.9375C32.3921 29.9375 32.9471 30.1644 33.4008 30.6181C33.8533 31.0706 34.0796 31.625 34.0796 32.2812C34.0796 32.9375 33.8533 33.4919 33.4008 33.9444C32.9471 34.3981 32.3921 34.625 31.7358 34.625ZM26.1108 40.25C25.4546 40.25 24.9002 40.0231 24.4477 39.5694C23.994 39.1169 23.7671 38.5625 23.7671 37.9062C23.7671 37.25 23.994 36.6956 24.4477 36.2431C24.9002 35.7894 25.4546 35.5625 26.1108 35.5625C26.7671 35.5625 27.3221 35.7894 27.7758 36.2431C28.2283 36.6956 28.4546 37.25 28.4546 37.9062C28.4546 38.5625 28.2283 39.1169 27.7758 39.5694C27.3221 40.0231 26.7671 40.25 26.1108 40.25ZM11.1108 27.125C8.26709 27.125 5.83772 26.1169 3.82272 24.1006C1.80646 22.0856 0.79834 19.6562 0.79834 16.8125C0.79834 14.2188 1.65771 11.9531 3.37647 10.0156C5.09522 8.07812 7.22022 6.9375 9.75147 6.59375C10.7515 4.8125 12.119 3.41375 13.854 2.3975C15.5877 1.3825 17.4858 0.875 19.5483 0.875C22.3608 0.875 24.8058 1.77375 26.8833 3.57125C28.9621 5.3675 30.2202 7.60938 30.6577 10.2969C32.814 10.4844 34.6265 11.375 36.0952 12.9688C37.564 14.5625 38.2983 16.4688 38.2983 18.6875C38.2983 21.0312 37.4783 23.0238 35.8383 24.665C34.1971 26.305 32.2046 27.125 29.8608 27.125H11.1108ZM11.1108 23.375H29.8608C31.1733 23.375 32.2827 22.9219 33.189 22.0156C34.0952 21.1094 34.5483 20 34.5483 18.6875C34.5483 17.375 34.0952 16.2656 33.189 15.3594C32.2827 14.4531 31.1733 14 29.8608 14H27.0483V12.125C27.0483 10.0625 26.314 8.29688 24.8452 6.82813C23.3765 5.35938 21.6108 4.625 19.5483 4.625C18.0483 4.625 16.6808 5.03125 15.4458 5.84375C14.2121 6.65625 13.2827 7.75 12.6577 9.125L12.189 10.25H11.0171C9.23584 10.3125 7.71272 10.9762 6.44772 12.2413C5.18147 13.5075 4.54834 15.0312 4.54834 16.8125C4.54834 18.625 5.18897 20.1719 6.47022 21.4531C7.75147 22.7344 9.29834 23.375 11.1108 23.375Z" fill="white"/>
</svg>
